<svg width="400" height="200" viewBox="0 0 400 200" fill="none" xmlns="http://www.w3.org/2000/svg">
  <!-- AOW Logo with modern design -->
  <g transform="translate(50, 60)">
    <!-- Letter A -->
    <path d="M0 80 L25 0 L50 0 L75 80 L55 80 L50 60 L25 60 L20 80 Z M30 45 L45 45 L37.5 20 Z" fill="#1e293b" stroke="#3b82f6" stroke-width="2"/>
    
    <!-- Letter O with circular design -->
    <circle cx="125" cy="40" r="35" fill="none" stroke="#1e293b" stroke-width="8"/>
    <circle cx="125" cy="40" r="35" fill="none" stroke="#3b82f6" stroke-width="2"/>
    <path d="M 125 5 A 35 35 0 0 1 160 40" stroke="#3b82f6" stroke-width="4" fill="none" stroke-linecap="round"/>
    
    <!-- Letter W -->
    <path d="M175 0 L190 80 L205 0 L220 80 L235 0 L255 0 L235 80 L215 80 L205 20 L195 80 L175 80 L155 0 Z" fill="#1e293b" stroke="#3b82f6" stroke-width="2"/>
  </g>
  
  <!-- Subtitle -->
  <text x="200" y="160" font-family="Arial, sans-serif" font-size="14" fill="#64748b" text-anchor="middle" letter-spacing="2">
    ALL OF WORKS
  </text>
</svg>
