<?xml version="1.0" standalone="no"?>
<!DOCTYPE svg PUBLIC "-//W3C//DTD SVG 20010904//EN"
 "http://www.w3.org/TR/2001/REC-SVG-20010904/DTD/svg10.dtd">
<svg version="1.0" xmlns="http://www.w3.org/2000/svg"
 width="2000.000000pt" height="2000.000000pt" viewBox="0 0 2000.000000 2000.000000"
 preserveAspectRatio="xMidYMid meet">

<g transform="translate(0.000000,2000.000000) scale(0.100000,-0.100000)"
fill="#000000" stroke="none">
<path d="M9600 12925 c-8 -3 -71 -9 -140 -15 -169 -14 -206 -19 -270 -31 -112
-22 -230 -49 -255 -59 -11 -4 -54 -18 -95 -31 -334 -104 -693 -323 -950 -579
-203 -203 -358 -417 -492 -681 l-61 -120 12 -57 c20 -91 29 -133 41 -197 6
-33 15 -76 20 -95 4 -19 13 -59 19 -87 19 -89 33 -156 41 -198 5 -22 14 -65
20 -95 11 -52 18 -82 39 -167 5 -21 15 -65 21 -98 7 -33 16 -71 20 -85 7 -23
15 -59 40 -177 9 -44 17 -80 66 -293 17 -77 78 -319 95 -377 5 -18 14 -50 20
-70 5 -21 14 -51 19 -68 11 -39 39 -124 50 -150 4 -11 16 -40 25 -65 65 -174
166 -359 263 -480 270 -338 560 -532 967 -650 29 -8 80 -19 183 -39 26 -6 111
-16 190 -22 144 -13 343 -3 465 21 26 6 71 15 100 20 91 19 285 78 372 115
611 258 1125 831 1349 1500 87 260 127 457 166 817 28 269 -18 702 -106 988
-14 47 -28 94 -31 105 -3 11 -14 39 -24 62 -10 24 -19 47 -19 53 0 6 -4 18 -9
28 -5 9 -37 73 -71 142 -105 217 -224 382 -392 545 -144 140 -179 168 -307
253 -165 109 -434 228 -596 262 -27 6 -70 15 -95 21 -65 14 -162 28 -265 39
-104 11 -403 21 -425 15z m159 -986 c239 -39 428 -126 562 -259 215 -214 324
-453 388 -851 14 -86 14 -381 0 -484 -35 -270 -106 -508 -214 -720 -171 -337
-353 -530 -630 -667 -81 -40 -130 -58 -275 -100 -28 -8 -100 -13 -195 -12
-182 0 -280 22 -430 94 -247 120 -439 359 -535 667 -17 54 -35 112 -40 129 -6
17 -10 40 -10 52 0 12 -4 41 -10 64 -5 24 -14 101 -20 172 -16 187 7 436 62
676 57 246 197 561 322 724 111 143 140 176 223 245 151 126 333 221 478 250
33 7 76 16 95 20 52 12 154 12 229 0z"/>
<path d="M11150 12868 c0 -4 37 -38 83 -77 115 -97 330 -311 406 -405 92 -114
172 -242 246 -391 73 -148 96 -201 115 -265 7 -25 21 -70 30 -100 10 -30 23
-77 29 -105 7 -27 16 -66 21 -85 5 -19 13 -60 19 -90 6 -30 13 -68 16 -85 22
-109 38 -227 61 -460 17 -174 15 -331 -6 -535 -24 -231 -24 -253 -1 -356 25
-111 34 -157 56 -294 9 -52 22 -122 30 -155 8 -33 16 -78 19 -100 6 -37 23
-134 47 -260 5 -27 14 -75 19 -105 6 -30 15 -77 20 -105 5 -27 14 -75 20 -105
6 -30 15 -77 20 -105 6 -27 15 -75 20 -105 6 -30 15 -75 20 -100 4 -25 13 -72
19 -105 6 -33 16 -82 21 -110 5 -27 14 -75 20 -105 6 -30 15 -77 20 -105 5
-27 14 -75 19 -105 17 -100 -32 -91 438 -88 l415 3 20 50 c21 53 77 206 132
365 19 52 43 122 55 155 12 33 33 94 47 135 14 41 30 84 34 95 5 11 16 40 24
65 15 47 42 121 56 155 5 11 16 40 24 65 8 25 29 83 46 130 18 47 35 96 40
110 4 14 15 43 23 65 9 22 32 87 52 145 52 149 173 488 192 535 8 22 23 65 33
95 10 30 33 93 50 140 60 164 71 196 102 290 17 52 33 101 35 109 2 9 7 11 12
5 8 -8 39 -115 62 -216 12 -53 26 -106 38 -153 6 -22 16 -60 22 -85 5 -25 14
-61 19 -80 5 -19 13 -53 19 -75 10 -41 35 -142 51 -207 6 -21 15 -56 20 -78 6
-22 15 -59 21 -82 32 -127 61 -243 70 -283 5 -22 14 -58 20 -80 6 -22 13 -51
16 -65 3 -14 13 -54 23 -90 10 -36 25 -101 35 -145 9 -44 20 -91 25 -105 5
-14 14 -50 21 -80 6 -30 15 -66 20 -80 4 -14 13 -47 19 -75 6 -27 27 -113 46
-190 20 -77 40 -160 46 -185 11 -50 23 -100 38 -160 26 -104 32 -127 38 -160
l7 -35 364 0 363 0 54 135 c30 74 63 158 73 185 66 172 130 335 286 728 97
243 204 512 237 597 33 85 75 192 94 237 19 45 34 85 34 88 0 4 12 35 26 69
44 102 194 484 321 811 19 50 47 122 63 160 28 70 283 715 345 875 161 413
202 517 236 598 21 51 39 97 39 102 0 4 18 50 40 102 21 51 59 144 83 206 l44
112 -969 0 c-644 0 -967 -3 -963 -10 3 -5 12 -10 18 -10 19 0 136 -75 174
-112 50 -47 116 -153 142 -226 19 -54 22 -77 18 -179 -3 -65 -8 -134 -11 -153
-20 -105 -63 -249 -138 -470 -27 -80 -74 -219 -104 -310 -30 -91 -59 -174 -64
-185 -5 -11 -16 -40 -24 -65 -8 -25 -38 -110 -66 -190 -29 -80 -56 -156 -60
-170 -5 -14 -29 -81 -53 -150 -84 -234 -137 -383 -137 -387 0 -1 -4 -3 -9 -3
-5 0 -11 12 -14 28 -3 15 -15 63 -27 107 -12 44 -26 98 -31 120 -5 22 -13 56
-18 75 -5 19 -12 46 -16 60 -12 47 -25 100 -35 138 -5 20 -53 213 -105 427
-53 215 -108 435 -122 490 -14 55 -30 120 -35 145 -14 64 -25 109 -37 155 -6
22 -15 58 -21 80 -5 22 -14 58 -20 80 -5 22 -15 60 -21 85 -15 66 -40 167 -58
235 -6 22 -16 60 -22 85 -19 83 -62 252 -73 288 l-7 22 -375 0 -374 0 -15 -32
c-7 -18 -66 -195 -130 -393 -64 -198 -125 -382 -135 -410 -9 -27 -23 -68 -29
-90 -7 -22 -16 -49 -20 -60 -5 -11 -27 -78 -50 -150 -40 -128 -137 -429 -210
-655 -21 -63 -61 -189 -91 -280 -29 -91 -56 -174 -61 -185 -4 -11 -18 -51 -30
-90 -45 -145 -54 -155 -62 -77 -7 53 -18 123 -57 332 -5 25 -13 72 -19 105
-40 238 -63 366 -71 405 -10 44 -44 242 -61 350 -5 30 -13 78 -19 105 -6 28
-15 77 -20 110 -6 33 -14 83 -19 110 -5 28 -15 79 -21 115 -6 36 -15 85 -20
110 -5 25 -14 74 -20 110 -6 36 -16 88 -21 115 -5 28 -13 77 -19 110 -5 33
-14 83 -20 110 -5 28 -13 73 -16 100 -8 56 -23 92 -51 117 -18 16 -78 18 -836
20 -449 2 -817 0 -817 -4z"/>
<path d="M4720 12833 c0 -6 14 -16 30 -22 50 -17 168 -101 210 -149 21 -24 53
-72 70 -106 28 -55 31 -70 27 -122 -5 -64 -14 -107 -27 -139 -4 -11 -23 -58
-41 -105 -17 -47 -40 -101 -50 -120 -25 -48 -199 -412 -199 -416 0 -2 -40 -86
-89 -186 -542 -1114 -1125 -2276 -1336 -2658 -160 -291 -419 -671 -582 -855
-35 -38 -63 -76 -63 -82 0 -10 192 -13 925 -13 509 0 925 3 925 8 0 4 -25 34
-55 65 -76 81 -115 166 -115 250 0 108 24 170 209 549 50 103 91 191 91 197 0
5 4 12 9 16 5 3 387 5 848 5 l838 1 12 -38 c6 -21 21 -81 33 -133 11 -52 27
-122 34 -155 8 -33 24 -103 35 -155 26 -114 59 -252 71 -300 5 -19 12 -48 15
-65 23 -113 49 -217 59 -233 5 -9 62 -12 199 -12 339 -1 584 -27 912 -94 106
-22 414 -102 495 -129 25 -8 79 -25 120 -37 41 -12 100 -30 130 -40 92 -30
163 -52 198 -61 17 -5 49 -14 70 -20 20 -6 53 -14 72 -19 19 -5 53 -14 75 -20
72 -20 160 -41 253 -60 28 -5 76 -15 105 -20 78 -16 190 -27 403 -41 243 -15
597 2 797 40 193 37 225 43 292 60 22 5 56 14 75 20 59 17 104 29 130 36 14 4
34 10 45 15 11 4 92 36 180 71 202 78 223 94 110 78 -217 -30 -1091 -44 -1360
-21 -197 16 -405 42 -505 61 -25 5 -70 14 -100 20 -153 29 -338 81 -527 150
-230 83 -475 232 -631 384 -62 61 -196 227 -265 329 -53 79 -186 343 -216 430
-72 205 -121 356 -121 371 0 9 -4 25 -9 35 -5 9 -14 35 -19 57 -10 40 -27 103
-43 160 -13 46 -57 239 -80 345 -6 30 -19 91 -29 135 -10 44 -21 91 -24 105
-3 14 -14 68 -25 120 -12 52 -26 120 -32 150 -5 30 -18 91 -28 135 -11 44 -29
125 -41 180 -11 55 -30 136 -40 180 -10 44 -21 94 -25 110 -3 17 -11 50 -16
75 -5 25 -14 65 -19 90 -4 25 -13 63 -19 85 -7 22 -16 63 -22 90 -5 28 -14 69
-19 93 -6 23 -14 61 -19 85 -13 63 -32 147 -43 192 -11 49 -25 111 -37 168 -5
23 -14 67 -21 97 -7 30 -16 73 -20 95 -37 194 -149 676 -159 687 -4 4 -462 9
-1019 10 -759 2 -1012 0 -1012 -9z m1149 -1425 c17 -85 28 -142 41 -213 6 -33
15 -78 20 -100 5 -22 21 -103 35 -180 14 -77 33 -171 41 -210 8 -38 30 -155
50 -260 19 -104 39 -208 44 -230 4 -22 14 -67 20 -100 6 -33 16 -80 21 -104 6
-24 8 -45 6 -48 -5 -5 -988 -5 -993 0 -3 2 37 91 87 198 50 107 106 226 124
264 30 64 51 109 167 355 249 527 308 655 308 675 0 37 17 9 29 -47z"/>
</g>
</svg>
