<?xml version="1.0" standalone="no"?>
<!DOCTYPE svg PUBLIC "-//W3C//DTD SVG 20010904//EN"
 "http://www.w3.org/TR/2001/REC-SVG-20010904/DTD/svg10.dtd">
<svg version="1.0" xmlns="http://www.w3.org/2000/svg"
 width="2000.000000pt" height="2000.000000pt" viewBox="0 0 2000.000000 2000.000000"
 preserveAspectRatio="xMidYMid meet">

<g transform="translate(0.000000,2000.000000) scale(0.100000,-0.100000)"
fill="#000000" stroke="none">
<path d="M9410 12901 c-102 -9 -190 -20 -196 -24 -6 -3 -44 -11 -85 -18 -41
-6 -99 -18 -129 -26 -30 -8 -66 -17 -80 -20 -14 -3 -29 -9 -35 -13 -5 -3 -30
-12 -55 -19 -25 -7 -67 -22 -95 -33 -27 -11 -59 -24 -70 -28 -11 -4 -69 -31
-130 -61 -314 -151 -548 -334 -784 -610 -104 -123 -138 -168 -228 -304 -14
-22 -60 -104 -101 -183 -81 -156 -78 -139 -52 -272 17 -88 66 -322 81 -385 5
-22 13 -62 19 -90 22 -115 41 -205 61 -290 11 -49 25 -109 30 -132 23 -108 28
-131 39 -173 6 -25 16 -65 20 -90 9 -44 22 -102 42 -185 5 -22 13 -58 18 -80
5 -22 14 -60 20 -85 6 -25 14 -60 17 -78 3 -18 9 -35 14 -38 5 -3 9 -15 9 -26
0 -12 4 -35 9 -52 5 -17 15 -51 21 -76 7 -25 16 -56 20 -70 4 -14 18 -59 30
-100 12 -41 25 -84 30 -95 5 -11 18 -47 29 -80 60 -186 200 -436 317 -565 32
-36 73 -81 89 -100 62 -71 221 -205 318 -267 99 -64 292 -163 319 -163 8 0 18
-4 24 -8 5 -5 29 -14 54 -21 25 -6 54 -16 65 -20 86 -36 398 -80 565 -80 118
0 372 29 470 54 155 38 369 117 455 167 11 6 45 25 75 41 82 44 245 154 330
222 171 137 405 394 514 565 44 68 106 172 106 176 0 2 13 25 28 51 15 26 41
80 56 118 16 39 33 75 37 81 12 15 103 284 131 384 13 47 35 151 58 270 40
213 56 491 41 717 -12 186 -22 274 -41 358 -6 28 -15 70 -20 95 -17 84 -21
105 -30 125 -4 11 -19 56 -33 100 -106 336 -277 624 -509 855 -57 56 -119 114
-138 128 -19 14 -48 38 -65 53 -86 77 -354 227 -500 279 -206 73 -299 93 -555
120 -221 23 -382 23 -630 1z m350 -957 c154 -24 160 -26 166 -35 3 -5 16 -9
29 -9 13 0 27 -4 30 -10 3 -5 13 -10 22 -10 24 0 170 -77 227 -120 79 -59 188
-177 249 -270 65 -100 131 -236 158 -325 6 -22 15 -49 20 -60 4 -11 10 -33 14
-50 3 -16 10 -50 16 -75 49 -237 49 -568 -1 -805 -6 -27 -13 -63 -16 -80 -3
-16 -9 -39 -14 -50 -4 -11 -13 -40 -20 -65 -13 -48 -27 -93 -40 -125 -4 -11
-18 -47 -30 -80 -77 -201 -252 -478 -377 -596 -108 -104 -389 -279 -446 -279
-9 0 -19 -4 -22 -10 -3 -5 -17 -10 -30 -10 -13 0 -26 -4 -29 -9 -6 -9 -29 -14
-169 -31 -110 -14 -358 7 -373 31 -3 5 -15 9 -26 9 -54 0 -252 113 -358 203
-121 104 -252 322 -318 527 -47 147 -52 168 -62 275 -6 55 -14 137 -20 183 -6
55 -6 113 0 170 6 48 15 137 20 197 5 61 14 133 20 160 17 80 31 138 40 165 4
14 13 45 20 70 7 25 16 54 20 65 5 11 18 47 30 80 31 84 135 297 178 364 62
95 176 240 216 276 168 148 341 252 486 294 96 27 121 32 200 40 47 5 87 9 90
9 3 1 48 -6 100 -14z"/>
<path d="M11160 12864 c0 0 288 -265 320 -294 30 -28 182 -203 223 -259 113
-153 235 -385 302 -576 25 -72 75 -265 90 -345 9 -52 23 -117 31 -145 7 -27
18 -93 24 -145 5 -52 16 -142 23 -200 16 -135 14 -521 -3 -675 -16 -144 -16
-212 -1 -282 15 -74 30 -148 41 -213 13 -69 27 -146 40 -207 12 -60 25 -129
40 -213 21 -117 30 -164 40 -215 6 -27 15 -75 20 -105 6 -30 14 -77 20 -105 5
-27 14 -75 20 -105 11 -63 47 -253 61 -320 17 -84 28 -145 41 -235 8 -50 17
-96 21 -101 3 -6 11 -42 17 -80 6 -38 15 -93 21 -121 l10 -53 414 0 413 0 21
55 c11 30 30 81 42 113 12 31 25 66 29 77 11 26 56 154 80 225 10 30 25 73 33
95 20 54 23 60 78 215 26 74 69 194 94 265 26 72 55 155 65 185 17 52 41 119
60 165 4 11 13 36 20 55 7 19 16 44 21 55 4 11 20 56 34 100 15 44 32 94 40
110 7 17 25 64 39 105 13 41 39 113 56 160 17 47 46 128 65 180 58 165 132
372 159 445 14 38 26 80 26 92 0 41 27 25 40 -24 7 -27 16 -61 20 -78 8 -28
17 -62 39 -152 6 -21 17 -67 27 -103 9 -36 21 -81 25 -100 30 -134 40 -171 54
-220 9 -30 27 -102 40 -160 13 -58 31 -134 40 -170 9 -36 23 -92 32 -125 8
-33 19 -76 23 -95 5 -19 14 -53 19 -75 6 -22 16 -60 22 -85 10 -45 21 -90 39
-162 6 -21 15 -57 20 -80 20 -80 28 -113 45 -178 8 -36 20 -81 25 -100 4 -19
13 -53 19 -75 16 -61 99 -402 115 -475 9 -36 23 -94 31 -130 9 -36 19 -75 21
-87 l4 -23 359 0 358 0 10 23 c6 12 34 83 62 157 55 141 74 188 111 280 12 30
26 64 31 75 4 11 87 220 183 465 97 245 176 449 176 452 0 4 14 37 30 73 17
36 30 70 30 75 0 6 9 32 21 58 25 56 32 73 54 132 9 25 23 59 30 75 7 17 48
120 90 230 43 110 87 220 98 245 11 25 29 70 39 100 38 104 44 120 51 126 4 4
7 13 7 21 0 7 9 35 21 61 25 56 32 73 54 132 9 25 23 59 30 75 7 17 66 165
130 330 65 165 123 314 130 330 7 17 21 50 30 75 20 52 27 72 48 120 8 19 18
46 22 60 4 14 16 43 25 65 21 47 209 527 235 600 10 28 22 55 25 60 4 6 18 39
30 75 22 64 53 138 71 172 5 10 9 22 9 28 0 6 8 29 19 53 33 74 63 156 59 162
-2 4 -1898 13 -1898 8 0 -1 28 -17 63 -36 158 -89 287 -288 287 -441 0 -70
-17 -223 -31 -271 -6 -22 -15 -58 -21 -80 -6 -22 -14 -51 -18 -65 -44 -144
-55 -176 -62 -184 -4 -6 -8 -20 -8 -31 0 -12 -3 -25 -6 -28 -7 -6 -110 -303
-139 -397 -7 -25 -32 -97 -55 -160 -23 -63 -66 -187 -96 -275 -30 -88 -59
-169 -63 -180 -5 -11 -14 -36 -21 -55 -7 -19 -16 -44 -20 -55 -4 -11 -13 -36
-20 -55 -7 -19 -16 -44 -20 -55 -5 -11 -18 -49 -30 -85 -12 -36 -25 -74 -30
-85 -4 -11 -13 -35 -20 -52 -18 -47 -36 -41 -44 15 -3 26 -12 67 -20 92 -23
76 -35 122 -52 200 -8 41 -24 104 -34 140 -10 36 -30 112 -43 170 -14 58 -33
131 -41 163 -9 32 -16 68 -16 80 0 13 -4 27 -8 33 -5 5 -14 34 -21 64 -6 30
-16 72 -21 93 -6 20 -14 55 -20 77 -5 22 -15 59 -21 83 -6 23 -14 58 -19 77
-5 19 -13 54 -19 78 -6 23 -16 61 -22 85 -16 64 -27 107 -39 162 -13 58 -29
119 -40 155 -4 14 -15 61 -24 105 -9 44 -23 100 -30 125 -8 25 -26 97 -40 160
-15 63 -33 135 -41 160 -8 25 -18 68 -24 95 -5 28 -18 78 -28 113 l-18 63
-368 0 c-203 0 -372 -3 -376 -5 -4 -3 -20 -45 -35 -93 -15 -48 -31 -97 -36
-108 -4 -11 -36 -108 -71 -215 -34 -107 -66 -199 -69 -205 -4 -5 -10 -25 -14
-43 -3 -19 -12 -48 -20 -65 -7 -18 -26 -72 -40 -122 -15 -49 -33 -106 -41
-125 -12 -29 -81 -248 -117 -370 -6 -19 -14 -44 -18 -55 -12 -30 -26 -75 -41
-125 -7 -25 -16 -49 -21 -55 -4 -5 -8 -17 -8 -27 0 -10 -4 -26 -9 -36 -5 -9
-32 -91 -61 -182 -29 -91 -60 -187 -70 -215 -10 -27 -21 -63 -25 -80 -4 -16
-13 -43 -20 -60 -7 -16 -27 -75 -43 -130 -58 -192 -70 -200 -89 -54 -7 52 -17
120 -23 152 -5 31 -14 81 -19 110 -5 28 -14 79 -21 112 -6 33 -15 85 -20 115
-5 30 -14 80 -20 110 -5 30 -14 82 -20 115 -10 58 -20 112 -39 213 -14 71 -32
171 -41 227 -8 49 -23 134 -40 225 -5 25 -14 81 -20 125 -6 44 -17 107 -25
140 -7 33 -19 87 -25 120 -6 33 -15 80 -20 105 -6 25 -13 77 -16 115 -4 39
-13 87 -20 107 -7 20 -16 70 -19 110 -7 85 -28 141 -58 157 -16 8 -257 12
-830 14 -444 1 -807 2 -807 1z"/>
<path d="M4731 12832 c0 -4 28 -20 61 -37 83 -41 196 -148 237 -225 32 -60 33
-66 29 -149 -4 -73 -12 -104 -52 -204 -25 -66 -55 -135 -66 -155 -11 -21 -42
-84 -69 -142 -208 -449 -1090 -2238 -1312 -2660 -39 -74 -93 -178 -120 -230
-82 -158 -166 -308 -237 -425 -77 -127 -228 -352 -272 -405 -20 -25 -42 -56
-49 -69 -7 -13 -41 -55 -75 -95 -74 -85 -126 -152 -126 -160 0 -3 415 -6 923
-6 l922 0 -33 26 c-38 30 -122 145 -122 167 0 9 -4 19 -10 22 -14 8 -13 180 1
224 20 63 60 150 165 366 56 116 109 227 117 248 l16 37 825 0 c453 0 831 3
839 6 19 7 38 -25 48 -81 4 -22 13 -60 19 -85 6 -25 15 -63 20 -85 12 -55 30
-133 41 -175 15 -62 27 -114 39 -170 12 -57 23 -100 41 -172 5 -24 14 -61 19
-83 5 -22 13 -58 18 -80 6 -22 15 -64 21 -93 6 -30 13 -57 15 -61 3 -4 130
-11 283 -14 153 -4 314 -11 358 -17 229 -31 421 -64 525 -90 25 -6 63 -15 85
-20 22 -5 56 -13 75 -19 19 -5 53 -15 75 -21 22 -6 54 -15 70 -20 17 -5 41
-12 55 -15 14 -4 52 -15 85 -25 338 -103 496 -150 535 -160 19 -5 67 -17 105
-28 70 -20 134 -36 190 -47 17 -3 50 -11 75 -16 385 -85 1016 -90 1385 -9 22
4 67 14 100 20 89 18 185 40 230 55 22 7 67 20 100 30 33 9 74 23 90 29 17 7
46 19 65 26 19 7 58 23 85 35 28 12 68 28 90 35 58 18 68 32 20 26 -215 -27
-515 -40 -915 -40 -401 0 -771 33 -1060 93 -25 6 -58 13 -75 16 -16 3 -48 11
-70 16 -22 6 -58 15 -80 21 -22 6 -49 14 -60 18 -11 4 -40 13 -65 20 -25 7
-54 16 -65 21 -11 4 -59 22 -107 38 -48 16 -95 34 -105 39 -10 6 -62 31 -117
57 -54 26 -124 63 -155 82 -73 47 -214 157 -266 208 -71 69 -202 230 -265 327
-75 113 -209 384 -245 493 -14 44 -30 89 -35 100 -5 11 -23 67 -40 125 -18 58
-36 115 -40 126 -5 12 -12 43 -15 70 -4 27 -12 58 -18 68 -11 23 -67 248 -67
274 0 9 -7 37 -15 60 -9 24 -20 69 -24 100 -5 32 -14 75 -21 97 -6 22 -15 63
-20 90 -10 54 -24 118 -60 278 -5 23 -14 67 -20 97 -19 90 -28 133 -40 180 -6
25 -15 63 -19 85 -13 60 -32 145 -43 190 -17 75 -29 130 -42 205 -8 41 -18 89
-24 105 -5 17 -15 57 -22 90 -7 33 -16 74 -21 90 -4 17 -11 55 -15 85 -4 30
-11 63 -16 74 -6 10 -16 53 -24 95 -7 42 -22 117 -34 166 -21 94 -37 163 -51
230 -4 22 -13 60 -19 85 -5 25 -15 68 -20 95 -14 64 -26 119 -40 175 -14 56
-26 111 -40 175 -5 28 -14 68 -19 90 -6 22 -13 52 -17 68 l-6 28 -1009 -2
c-555 0 -1009 -4 -1008 -7z m1146 -1433 c7 -35 17 -91 23 -124 5 -33 15 -82
20 -110 6 -27 14 -72 20 -100 5 -27 14 -72 20 -100 5 -27 14 -75 20 -105 6
-30 15 -77 21 -105 5 -27 14 -72 19 -100 5 -27 14 -72 19 -100 6 -27 15 -75
21 -105 5 -30 14 -75 20 -100 6 -25 15 -70 20 -100 6 -30 15 -77 21 -105 18
-86 29 -149 32 -170 2 -20 -5 -20 -500 -23 -456 -2 -503 -1 -503 14 0 9 27 72
60 140 33 68 60 126 60 128 0 2 30 66 66 142 77 162 117 247 172 364 22 47 63
135 92 195 29 61 68 144 87 185 19 41 57 122 84 178 27 57 52 116 55 130 16
65 36 53 51 -29z"/>
</g>
</svg>
